# xmcd CD database file
#
# Track frame offsets:
#	150
#	22612
#	52235
#	83272
#	129462
#	141687
#	166442
#	197047
#	204847
#	231312
#
# Disc length: 3531 seconds
#
# Revision: 0
# Processed by: cddbd v1.5.2PL0 Copyright (c) Steve Scherf et al.
# Submitted via: CDex 1.51
#
DISCID=830dc90a
DTITLE=Marc Liebeskind - Duvida
DYEAR=1900
DGENRE=Jazz
TTITLE0=Xiaheu
TTITLE1=Casa Velha
TTITLE2=Toutes Les Choses
TTITLE3=Duvida
TTITLE4=Atol 32
TTITLE5=Foamy
TTITLE6=Rêves de Marmotte
TTITLE7=Merlin
TTITLE8=Dynamite Expresso
TTITLE9=Bouseux
EXTD=
EXTT0=
EXTT1=
EXTT2=
EXTT3=
EXTT4=
EXTT5=
EXTT6=
EXTT7=
EXTT8=
EXTT9=
PLAYORDER=
